<svg version="1.1" id="Layer_1" xmlns:x="ns_extend;" xmlns:i="ns_ai;" xmlns:graph="ns_graphs;" xmlns="http://www.w3.org/2000/svg" xmlns:xlink="http://www.w3.org/1999/xlink" x="0px" y="0px" viewBox="0 0 150.2 75" style="enable-background:new 0 0 150.2 75;" xml:space="preserve">
 <style type="text/css">
  .st0{fill:#C40D2E;}
 </style>
 <metadata>
  <sfw xmlns="ns_sfw;">
   <slices>
   </slices>
   <sliceSourceBounds bottomLeftOrigin="true" height="75" width="150.2" x="248.5" y="-298.8">
   </sliceSourceBounds>
  </sfw>
 </metadata>
 <g>
  <path class="st0" d="M14.8,44.4c-8.3,0-15,6.9-14.8,15.2l0,0c0,8.3,6.5,15,14.8,15.2l0,0c8.3-0.4,14.8-7.5,14.4-16
		C28.8,51,22.7,44.8,14.8,44.4z M25.2,59.6L25.2,59.6c0.2,5.8-4.4,10.8-10.2,10.8c0,0,0,0-0.2,0c-6,0-10.8-5-10.8-10.8
		s5-10.8,10.8-10.8C20.6,48.8,25.4,53.5,25.2,59.6C25.2,59.4,25.2,59.4,25.2,59.6z">
  </path>
  <polygon class="st0" points="47.9,64.2 39.6,44.2 30.4,74 35,74 35,74.2 40.2,56.5 47.9,75 55.6,56.5 61,74.2 65.4,74.2 56.3,44.2 
			">
  </polygon>
  <path class="st0" d="M134.8,43.3L119.6,74h4.8l0,0l3.1-6h15l2.9,6h4.8L134.8,43.3z M129.4,64l5.2-11l5.4,11H129.4z">
  </path>
  <path class="st0" d="M120,58.5h-14.4v4.2h10c-1.2,4.6-5.4,7.7-10.2,7.7c-6,0-10.8-4.8-10.8-10.8c0-6,4.8-10.8,10.8-10.8l0,0
		c3.5,0,6.7,1.9,8.8,4.6l3.3-2.5c-2.7-4-7.3-6.5-12.1-6.5c-7.9,0-14.6,6.5-14.8,14.4c-0.2,8.1,6.2,15,14.4,15.2
		c8.1,0.2,15-6.2,15.2-14.4C120,59.2,120,59,120,58.5z">
  </path>
  <path class="st0" d="M59,17.1c0-7.7,5.4-15.4,14-15.4c8.8,0,14,7.3,14,15.4c0,7.9-4.2,14.2-10.2,18.8l0.2,0.6h13.8l2.9-5.8h-1.5
		l-1.9,2.9h-7.1c5.4-3.5,8.8-9.6,9-16C92.1,6.5,82.5,0,72.7,0S53.3,6.5,53.3,17.5c0.2,6.5,3.5,12.5,9,16h-7.1l-1.9-2.9h-1.5l2.9,5.8
		h13.8l0.4-0.6C63.1,31.2,59,24.8,59,17.1z">
  </path>
  <polygon class="st0" points="69,74 86.3,74 86.3,69.8 73.3,69.8 73.3,61.7 85.8,61.7 85.8,57.5 73.3,57.5 73.3,49.2 86.3,49.2 
		86.3,45 69,45 	">
  </polygon>
 </g>
</svg>